<?xml version="1.0" encoding="UTF-8"?>
<svg width="17px" height="18px" viewBox="0 0 17 18" version="1.1" xmlns="http://www.w3.org/2000/svg" xmlns:xlink="http://www.w3.org/1999/xlink">
    <!-- Generator: Sketch 52.6 (67491) - http://www.bohemiancoding.com/sketch -->
    <title>Group@2x</title>
    <desc>Created with Sketch.</desc>
    <g id="Page-1" stroke="none" stroke-width="1" fill="none" fill-rule="evenodd">
        <g id="购物车-2" transform="translate(-355.000000, -696.000000)">
            <g id="navbar-购物车" transform="translate(0.000000, 687.000000)">
                <g id="navbar-首页">
                    <g id="Group-5" transform="translate(352.000000, 7.000000)">
                        <g id="Group">
                            <rect id="Rectangle-12-Copy-4" x="0" y="0" width="22" height="22"></rect>
                            <g id="个人中心(1)" transform="translate(3.000000, 2.000000)" fill="#444444" fill-rule="nonzero">
                                <path d="M8.49469579,8.89350649 C10.9956318,8.89350649 13.0297972,6.9012987 13.0297972,4.45194805 C13.0297972,2.0025974 10.9956318,0.00779220779 8.49469579,0.00779220779 C5.99375975,0.00779220779 3.95959438,2 3.95959438,4.44935065 C3.95959438,6.8987013 5.99375975,8.89350649 8.49469579,8.89350649 Z M8.49469579,0.958441558 C10.4599064,0.958441558 12.0591264,2.52467532 12.0591264,4.44935065 C12.0591264,6.37402597 10.4599064,7.94025974 8.49469579,7.94025974 C6.52948518,7.94025974 4.93026521,6.37402597 4.93026521,4.44935065 C4.93026521,2.52467532 6.52948518,0.958441558 8.49469579,0.958441558 Z M12.8282371,9.84415584 L4.16380655,9.84415584 C1.8723869,9.84415584 0.00795631825,11.6701299 0.00795631825,13.9142857 C0.00795631825,16.1584416 1.8723869,17.9844156 4.16380655,17.9844156 L12.8282371,17.9844156 C15.1196568,17.9844156 16.9840874,16.1584416 16.9840874,13.9142857 C16.9840874,11.6701299 15.1170047,9.84415584 12.8282371,9.84415584 Z M11.1388456,10.7974026 L8.49469579,13.387013 L5.85054602,10.7974026 L11.1388456,10.7974026 Z M12.8282371,17.0311688 L4.16380655,17.0311688 C2.40811232,17.0311688 0.981279251,15.6337662 0.981279251,13.9142857 C0.981279251,12.1948052 2.40811232,10.7974026 4.16380655,10.7974026 L4.47675507,10.7974026 L8.1525741,14.3974026 C8.24804992,14.4909091 8.37269891,14.5376623 8.49734789,14.5376623 C8.62199688,14.5376623 8.74664587,14.4909091 8.84212168,14.3974026 L12.5179407,10.7974026 L12.8308892,10.7974026 C14.5865835,10.7974026 16.0134165,12.1948052 16.0134165,13.9142857 C16.0134165,15.6337662 14.5812793,17.0311688 12.8282371,17.0311688 Z" id="Shape"></path>
                            </g>
                        </g>
                    </g>
                </g>
            </g>
        </g>
    </g>
</svg>