<?xml version="1.0" encoding="UTF-8"?>
<svg width="64px" height="64px" viewBox="0 0 64 64" version="1.1" xmlns="http://www.w3.org/2000/svg" xmlns:xlink="http://www.w3.org/1999/xlink">
    <!-- Generator: Sketch 52.6 (67491) - http://www.bohemiancoding.com/sketch -->
    <title>Group 9@3x</title>
    <desc>Created with Sketch.</desc>
    <defs>
        <circle id="path-1" cx="31" cy="31" r="31"></circle>
        <polygon id="path-3" points="0 0 40.3 0 40.3 50.6333333 0 50.6333333"></polygon>
        <linearGradient x1="0%" y1="44.6590909%" x2="100%" y2="44.65909%" id="linearGradient-5">
            <stop stop-color="#FFA997" offset="0%"></stop>
            <stop stop-color="#FF6C9A" offset="100%"></stop>
        </linearGradient>
    </defs>
    <g id="Page-1" stroke="none" stroke-width="1" fill="none" fill-rule="evenodd">
        <g id="小C-我的页面" transform="translate(-19.000000, -63.000000)">
            <g id="Group-14" transform="translate(20.000000, 64.000000)">
                <g id="Group-9">
                    <g id="登录-copy">
                        <mask id="mask-2" fill="white">
                            <use xlink:href="#path-1"></use>
                        </mask>
                        <circle stroke="#FFFFFF" cx="31" cy="31" r="31.5"></circle>
                        <g id="Page-1" mask="url(#mask-2)">
                            <g transform="translate(11.366667, 16.533333)">
                                <mask id="mask-4" fill="white">
                                    <use xlink:href="#path-3"></use>
                                </mask>
                                <g id="Clip-2" stroke="none" fill="none"></g>
                                <path d="M2.98546263,50.6333333 L0,50.6333333 L0,40.8339541 C0,34.260962 5.16801649,28.9117008 11.5183699,28.9117008 L28.781905,28.9117008 C35.1319148,28.9117008 40.3,34.260962 40.3,40.8339541 L40.3,50.4454665 L37.3147435,50.4454665 L2.98546263,50.6333333 Z M20.1499656,26.810174 C13.5580455,26.810174 8.19753154,21.2616644 8.19753154,14.4385626 C8.19753154,7.61517625 13.5580455,2.06666667 20.1499656,2.06666667 C26.7421607,2.06666667 32.1026746,7.61517625 32.1026746,14.4385626 C32.1026746,21.2561159 26.7421607,26.810174 20.1499656,26.810174 Z" id="Fill-1" stroke="none" fill="url(#linearGradient-5)" fill-rule="evenodd" mask="url(#mask-4)"></path>
                            </g>
                        </g>
                    </g>
                </g>
            </g>
        </g>
    </g>
</svg>