<?xml version="1.0" encoding="UTF-8"?>
<svg width="20px" height="18px" viewBox="0 0 20 18" version="1.1" xmlns="http://www.w3.org/2000/svg" xmlns:xlink="http://www.w3.org/1999/xlink">
    <!-- Generator: Sketch 52.6 (67491) - http://www.bohemiancoding.com/sketch -->
    <title>ICON/首页/购物车 Copy@3x</title>
    <desc>Created with Sketch.</desc>
    <g id="Page-1" stroke="none" stroke-width="1" fill="none" fill-rule="evenodd">
        <g id="实名认证-1" transform="translate(-376.000000, -27.000000)">
            <g id="Group-4" transform="translate(374.000000, 26.000000)">
                <g id="ICON/首页/购物车" transform="translate(2.000000, 0.000000)">
                    <g id="Icon-Black">
                        <rect id="Rectangle-2" x="0" y="0" width="20" height="20"></rect>
                        <path d="M15.367652,12.8083583 L6.8604295,12.8083583 L5.61479604,6.36242232 L17.1946469,6.36242232 L15.367652,12.8083583 Z M19.3029457,4.76853058 C19.4894946,5.02864279 19.5477295,5.36616936 19.4598837,5.67789115 L17.0535014,14.2574655 C16.9301225,14.6982113 16.5451803,14.9996111 16.1069384,14.9996111 L6.05205089,14.9996111 C5.58123698,14.9996111 5.17556713,14.6527948 5.08377322,14.1697293 L2.95968193,3.06438268 L1.48703127,3.06438268 C0.941202978,3.06438268 0.5,2.60299315 0.5,2.03219134 C0.5,1.46242172 0.941202978,1 1.48703127,1 L3.76904757,1 C4.23986148,1 4.6445443,1.34784848 4.73633821,1.82988184 L5.21998353,4.35462185 L18.5133207,4.35462185 C18.8232485,4.35462185 19.1163968,4.50841836 19.3029457,4.76853058 Z M6.99635229,16.0000833 C7.82435229,16.0000833 8.49635229,16.6720647 8.49635229,17.5000417 C8.49635229,18.3280187 7.82435229,19 6.99635229,19 C6.16835229,19 5.49635229,18.3280187 5.49635229,17.5000417 C5.49635229,16.6720647 6.16835229,16.0000833 6.99635229,16.0000833 Z M14.9995,16.0000833 C15.8275,16.0000833 16.4995,16.6720647 16.4995,17.5000417 C16.4995,18.3280187 15.8275,19 14.9995,19 C14.1715,19 13.4995,18.3280187 13.4995,17.5000417 C13.4995,16.6720647 14.1715,16.0000833 14.9995,16.0000833 Z" id="Icon" fill="#FFFFFF"></path>
                    </g>
                </g>
            </g>
        </g>
    </g>
</svg>