<?xml version="1.0" encoding="UTF-8"?>
<svg width="44px" height="44px" viewBox="0 0 44 44" version="1.1" xmlns="http://www.w3.org/2000/svg" xmlns:xlink="http://www.w3.org/1999/xlink">
    <!-- Generator: Sketch 52.6 (67491) - http://www.bohemiancoding.com/sketch -->
    <title>保存图片 copy 2@2x</title>
    <desc>Created with Sketch.</desc>
    <g id="Page-1" stroke="none" stroke-width="1" fill="none" fill-rule="evenodd">
        <g id="分享" transform="translate(-332.000000, -650.000000)">
            <g id="Group-9" transform="translate(0.000000, 621.000000)">
                <g id="Group-8" transform="translate(25.000000, 29.000000)">
                    <g id="Group-4" transform="translate(294.000000, 0.000000)">
                        <g id="保存图片-copy-2" transform="translate(13.000000, 0.000000)">
                            <circle id="Oval-2-Copy-5" fill="#FFD95C" cx="22" cy="22" r="22"></circle>
                            <g id="云下载" transform="translate(8.000000, 12.000000)" fill="#FFFFFF" fill-rule="nonzero">
                                <path d="M28,17.1283941 C28,17.6056245 27.9206667,18.054221 27.762,18.4741838 C27.6033333,18.8941465 27.384,19.2759308 27.104,19.6195366 C26.824,19.9631425 26.4926667,20.2447084 26.11,20.4642344 C25.7273333,20.6837603 25.312,20.8317017 24.864,20.9080586 L24.864,20.9653262 L24.276,20.9653262 L24.248,20.9653262 L6.076,20.9653262 C6.03866667,20.9653262 6.01533333,20.9700985 6.006,20.9796431 C5.99666667,20.9891877 5.97333333,20.9939601 5.936,20.9939601 C5.89866667,20.9939601 5.87066667,20.9891877 5.852,20.9796431 C5.83333333,20.9700985 5.80533333,20.9653262 5.768,20.9653262 L5.6,20.9653262 L5.6,20.9366924 C4.816,20.898514 4.08333333,20.7171664 3.402,20.3926498 C2.72066667,20.0681332 2.128,19.6338535 1.624,19.0898109 C1.12,18.5457683 0.723333333,17.9158242 0.434,17.1999787 C0.144666667,16.4841332 6.40783722e-14,15.7253369 6.39488462e-14,14.9235899 C6.38193202e-14,14.1218429 0.144666667,13.3678189 0.434,12.661518 C0.723333333,11.955217 1.11533333,11.3348176 1.61,10.8003196 C2.10466667,10.2658216 2.68333333,9.82676964 3.346,9.48316378 C4.00866667,9.13955792 4.72266667,8.93912117 5.488,8.88185353 C5.61866667,7.64105459 5.95466667,6.48138482 6.496,5.40284421 C7.03733333,4.3243036 7.73266667,3.38415979 8.582,2.58241278 C9.43133333,1.78066578 10.4066667,1.1507217 11.508,0.692580559 C12.6093333,0.234439414 13.7853333,0.00536884154 15.036,0.00536884154 C16.3613333,0.00536884154 17.612,0.263073236 18.788,0.778482024 C19.964,1.29389081 20.986,2.00019174 21.854,2.89738482 C22.722,3.7945779 23.408,4.83971238 23.912,6.03278828 C24.416,7.22586418 24.668,8.50006924 24.668,9.85540346 C24.668,10.4662583 24.612,11.0627963 24.5,11.6450173 C24.388,12.2272383 24.2293333,12.7855979 24.024,13.3200959 C24.0613333,13.3200959 24.1033333,13.3153236 24.15,13.305779 C24.1966667,13.2962344 24.2386667,13.2914621 24.276,13.2914621 C24.7986667,13.2914621 25.284,13.3916804 25.732,13.5921172 C26.18,13.7925539 26.572,14.0645752 26.908,14.4081811 C27.244,14.751787 27.51,15.1574328 27.706,15.6251185 C27.902,16.0928043 28,16.5938961 28,17.1283941 Z M18.788,11.8905885 C19.012,11.5088043 19.0773333,11.2892783 18.984,11.2320107 C18.8906667,11.174743 18.6573333,11.1461092 18.284,11.1461092 C18.06,11.1461092 17.7473333,11.1413369 17.346,11.1317923 C16.9446667,11.1222477 16.6413333,11.1174754 16.436,11.1174754 C16.1373333,11.1174754 15.946,10.9933955 15.862,10.7452357 C15.778,10.4970759 15.736,10.15347 15.736,9.71441811 C15.736,9.10356325 15.7313333,8.61201598 15.722,8.2397763 C15.7126667,7.86753662 15.708,7.46189081 15.708,7.02283888 C15.708,6.52651931 15.6753333,6.16382423 15.61,5.93475366 C15.5446667,5.70568309 15.2786667,5.5911478 14.812,5.5911478 C14.476,5.5911478 14.224,5.59592011 14.056,5.60546471 C13.888,5.61500932 13.6546667,5.61978162 13.356,5.61978162 C12.852,5.61978162 12.5393333,5.76772304 12.418,6.06360586 C12.2966667,6.35948868 12.236,6.6505992 12.236,6.93693742 L12.236,7.85321971 C12.236,8.10137949 12.2406667,8.33999467 12.25,8.56906525 C12.2593333,8.79813582 12.264,9.036751 12.264,9.28491079 L12.264,10.1152916 C12.264,10.420719 12.2266667,10.6545619 12.152,10.8168202 C12.0773333,10.9790786 11.9,11.0602077 11.62,11.0602077 C11.508,11.0792969 11.354,11.0936138 11.158,11.1031585 C10.962,11.1127031 10.7613333,11.1222477 10.556,11.1317923 C10.3506667,11.1413369 10.1546667,11.1461092 9.968,11.1461092 L9.52,11.1461092 C9.128,11.1461092 8.89466667,11.2701891 8.82,11.5183489 C8.74533333,11.7665087 8.86666667,12.0814807 9.184,12.463265 C9.50133333,12.8641385 9.842,13.2984181 10.206,13.7661039 C10.57,14.2337896 10.9293333,14.7062477 11.284,15.183478 C11.6386667,15.6607084 11.9793333,16.1236218 12.306,16.5722184 C12.6326667,17.0208149 12.936,17.4073715 13.216,17.7318881 C13.72,18.3045646 14.2053333,18.29502 14.672,17.7032543 C14.952,17.3787377 15.2786667,16.958775 15.652,16.4433662 C16.0253333,15.9279574 16.408,15.3886871 16.8,14.8255553 C17.192,14.2624234 17.5653333,13.7183808 17.92,13.1934274 C18.2746667,12.668474 18.564,12.2341944 18.788,11.8905885 Z" id="Shape"></path>
                            </g>
                        </g>
                    </g>
                </g>
            </g>
        </g>
    </g>
</svg>