<?xml version="1.0" encoding="UTF-8"?>
<svg width="14px" height="14px" viewBox="0 0 14 14" version="1.1" xmlns="http://www.w3.org/2000/svg" xmlns:xlink="http://www.w3.org/1999/xlink">
    <!-- Generator: Sketch 52.6 (67491) - http://www.bohemiancoding.com/sketch -->
    <title>地址icon@2x</title>
    <desc>Created with Sketch.</desc>
    <g id="地址icon" stroke="none" stroke-width="1" fill="none" fill-rule="evenodd">
        <g id="定位(1)">
            <rect id="Rectangle-2" x="0" y="0" width="14" height="14"></rect>
            <g id="Group-3" transform="translate(2.000000, 0.000000)" fill="#484848" fill-rule="nonzero">
                <path d="M5.5,4.68122273e-16 C2.4640983,-2.34061136e-16 0.00301369863,2.69008391 0.00301369863,6.00847059 C0.00301369863,8.17573647 1.66252493,10.7393506 4.93911452,13.7718362 C5.2631474,14.0712056 5.73762411,14.0712056 6.06088548,13.7718362 C9.33747507,10.7393506 10.9969863,8.17573647 10.9969863,6.00847059 C10.9969863,2.69008391 8.5359017,4.68122273e-16 5.5,4.68122273e-16 Z M5.54937644,12.9572141 C5.58257845,12.974793 5.61481107,12.9942712 5.64592501,13.0155583 L5.54937644,12.9572141 Z M0.96739726,6.00847059 C0.967397298,3.27225704 2.99671266,1.05411772 5.5,1.05411772 C8.00328734,1.05411772 10.0326027,3.27225704 10.0326027,6.00847059 C10.0326027,7.76336565 8.53587945,10.0874842 5.5,12.9091464 C2.46412055,10.0874842 0.96739726,7.76336565 0.96739726,6.00847059 Z" id="Shape"></path>
                <path d="M5.5,3.37317647 C4.63864734,3.37317646 3.84272465,3.87546067 3.41204831,4.69082352 C2.98137198,5.50618636 2.98137198,6.51075482 3.41204831,7.32611766 C3.84272465,8.1414805 4.63864734,8.64376472 5.5,8.64376471 C6.83153584,8.64376471 7.9109589,7.46390334 7.9109589,6.00847059 C7.9109589,4.55303784 6.83153584,3.37317647 5.5,3.37317647 Z M5.5,4.42729412 C6.0168116,4.4272941 6.49436522,4.72866463 6.75277103,5.21788234 C7.01117684,5.70710005 7.01117684,6.30984113 6.75277103,6.79905884 C6.49436522,7.28827655 6.0168116,7.58964708 5.5,7.58964706 C4.70107851,7.58964704 4.05342469,6.88173023 4.05342469,6.00847059 C4.05342469,5.13521095 4.70107851,4.42729414 5.5,4.42729412 Z" id="Shape"></path>
            </g>
        </g>
    </g>
</svg>