<?xml version="1.0" encoding="UTF-8"?>
<svg width="44px" height="44px" viewBox="0 0 44 44" version="1.1" xmlns="http://www.w3.org/2000/svg" xmlns:xlink="http://www.w3.org/1999/xlink">
    <!-- Generator: Sketch 52.6 (67491) - http://www.bohemiancoding.com/sketch -->
    <title>复制文案@2x</title>
    <desc>Created with Sketch.</desc>
    <g id="Page-1" stroke="none" stroke-width="1" fill="none" fill-rule="evenodd">
        <g id="分享" transform="translate(-32.000000, -650.000000)">
            <g id="Group-9" transform="translate(0.000000, 621.000000)">
                <g id="Group-8" transform="translate(25.000000, 29.000000)">
                    <g id="Group-7">
                        <g id="复制文案" transform="translate(7.000000, 0.000000)">
                            <circle id="Oval-2" fill="#C2C4C7" cx="22" cy="22" r="22"></circle>
                            <g id="链接-关联" transform="translate(6.500000, 7.500000)" fill="#FFFFFF" fill-rule="nonzero">
                                <path d="M23.6467483,8.34522804 L19.9710726,8.34522804 C18.9547483,8.34522804 18.1332348,9.16674155 18.1332348,10.1830659 C18.1332348,11.1975524 18.9547483,12.0209037 19.9710726,12.0209037 L23.6467483,12.0209037 C25.6757213,12.0209037 27.322424,13.6676064 27.322424,15.6965794 C27.322424,17.7255524 25.6757213,19.3722551 23.6467483,19.3722551 L19.9710726,19.3722551 C18.9547483,19.3722551 18.1332348,20.1937686 18.1332348,21.2100929 C18.1332348,22.2264172 18.9547483,23.0479307 19.9710726,23.0479307 L23.6467483,23.0479307 C27.7065321,23.0479307 30.9980997,19.7563632 30.9980997,15.6965794 C30.9980997,11.6367956 27.7065321,8.34522804 23.6467483,8.34522804 Z M12.6197213,19.3722551 L8.94404561,19.3722551 C6.91507264,19.3722551 5.26836993,17.7255524 5.26836993,15.6965794 C5.26836993,13.6676064 6.91507264,12.0209037 8.94404561,12.0209037 L12.6197213,12.0209037 C13.6360456,12.0209037 14.4575591,11.1975524 14.4575591,10.1830659 C14.4575591,9.16674155 13.6360456,8.34522804 12.6197213,8.34522804 L8.94404561,8.34522804 C4.88426182,8.34522804 1.59269426,11.6367956 1.59269426,15.6965794 C1.59269426,19.7563632 4.88426182,23.0479307 8.94404561,23.0479307 L12.6197213,23.0479307 C13.6360456,23.0479307 14.4575591,22.2264172 14.4575591,21.2100929 C14.4575591,20.1937686 13.6360456,19.3722551 12.6197213,19.3722551 Z M10.7818834,15.6965794 C10.7818834,16.7129037 11.603397,17.5344172 12.6197213,17.5344172 L19.9710726,17.5344172 C20.987397,17.5344172 21.8089105,16.7129037 21.8089105,15.6965794 C21.8089105,14.6802551 20.987397,13.8587416 19.9710726,13.8587416 L12.6197213,13.8587416 C11.603397,13.8587416 10.7818834,14.6802551 10.7818834,15.6965794 Z" id="形状" transform="translate(16.295397, 15.696579) rotate(-45.000000) translate(-16.295397, -15.696579) "></path>
                            </g>
                        </g>
                    </g>
                </g>
            </g>
        </g>
    </g>
</svg>