<?xml version="1.0" encoding="UTF-8"?>
<svg width="14px" height="9px" viewBox="0 0 14 9" version="1.1" xmlns="http://www.w3.org/2000/svg" xmlns:xlink="http://www.w3.org/1999/xlink">
    <!-- Generator: Sketch 52.6 (67491) - http://www.bohemiancoding.com/sketch -->
    <title>对勾@2x</title>
    <desc>Created with Sketch.</desc>
    <g id="Page-1" stroke="none" stroke-width="1" fill="none" fill-rule="evenodd">
        <g id="选择地址list" transform="translate(-380.000000, -630.000000)" fill="#FC5D7B">
            <g id="Group-8" transform="translate(0.000000, 339.000000)">
                <g id="Group-7-Copy" transform="translate(0.000000, 273.000000)">
                    <g id="对勾" transform="translate(380.000000, 18.000000)">
                        <path d="M3.894,8.7222973 C3.638,8.41418919 3.678,7.95405405 3.982,7.69459459 L12.806,0.190540541 C13.11,-0.0689189189 13.564,-0.0283783784 13.82,0.27972973 C14.076,0.587837838 14.036,1.04797297 13.732,1.30743243 L4.908,8.81148649 C4.604,9.07094595 4.15,9.03040541 3.894,8.7222973 Z" id="路径"></path>
                        <path d="M4.894,8.81148649 C4.59,9.07094595 4.136,9.03040541 3.88,8.7222973 L0.178,4.24864865 C-0.078,3.94054054 -0.038,3.48040541 0.266,3.22094595 C0.57,2.96148649 1.024,3.00202703 1.28,3.31013514 L4.984,7.78378378 C5.238,8.09189189 5.2,8.55202703 4.894,8.81148649 Z" id="路径"></path>
                    </g>
                </g>
            </g>
        </g>
    </g>
</svg>