<?xml version="1.0" encoding="UTF-8"?>
<svg width="16px" height="16px" viewBox="0 0 16 16" version="1.1" xmlns="http://www.w3.org/2000/svg" xmlns:xlink="http://www.w3.org/1999/xlink">
    <!-- Generator: Sketch 52.6 (67491) - http://www.bohemiancoding.com/sketch -->
    <title>搜索@2x</title>
    <desc>Created with Sketch.</desc>
    <g id="Page-1" stroke="none" stroke-width="1" fill="none" fill-rule="evenodd">
        <g id="小C老用户登陆首页" transform="translate(-121.000000, -34.000000)" fill="#999DA2" fill-rule="nonzero">
            <g id="分组-2">
                <g id="iOS-White-With-Back-Copy">
                    <g id="控件/搜索-copy-2" transform="translate(111.000000, 24.000000)">
                        <g id="Group-15" transform="translate(10.000000, 10.000000)">
                            <g id="搜索">
                                <path d="M7.7281949,15.2306011 C4.60828388,15.235129 1.7930276,13.3838723 0.595908856,10.5405512 C-0.601209887,7.69723005 0.0557243299,4.42217599 2.26021302,2.24339453 C4.46470171,0.0646130792 7.7823077,-0.588524706 10.6651725,0.588708407 C13.5480372,1.76594152 15.4280365,4.54154896 15.4280399,7.62054644 C15.4280445,11.819097 11.9825355,15.2244268 7.7281949,15.2306011 Z M7.7281949,1.14080873 C5.06591269,1.13628268 2.66343724,2.71608547 1.64250627,5.14259277 C0.621575291,7.56910008 1.18357043,10.3636762 3.06609103,12.221508 C4.94861162,14.0793398 7.78032493,14.6339645 10.2390782,13.6264228 C12.6978314,12.618881 14.2986283,10.2479135 14.2940421,7.62054644 C14.2877998,4.04444095 11.3518234,1.14696914 7.7281949,1.14080873 Z" id="Shape"></path>
                                <path d="M15.4166999,15.9804153 C15.267143,15.978313 15.1244859,15.9179761 15.0198007,15.8125464 L12.275526,13.1042623 C12.1317019,12.9623244 12.0755322,12.7554454 12.1281755,12.5615546 C12.1808187,12.3676638 12.3342773,12.2162178 12.5307447,12.164265 C12.7272121,12.1123121 12.9368403,12.1677452 13.0806645,12.3096831 L15.8249391,15.0179672 C15.9837667,15.1778345 16.0307458,15.4157443 15.9443672,15.6227699 C15.8579886,15.8297954 15.654882,15.9660793 15.4280399,15.9692241 L15.4166999,15.9804153 Z M3.54374307,6.54618578 C3.35612119,6.54749256 3.17999358,6.45711607 3.07331273,6.30479354 C2.96663189,6.152471 2.94321389,5.95792948 3.01076412,5.78518033 C3.50952045,4.49322534 4.52129521,3.45833696 5.81173866,2.92021857 C6.10296336,2.80587452 6.43297361,2.94616842 6.5488372,3.23357378 C6.66470078,3.52097913 6.52254251,3.84666139 6.23131782,3.96100546 C5.19225189,4.36251165 4.37016407,5.173818 3.96332226,6.19925684 C3.8930324,6.37827886 3.73464963,6.50923761 3.54374307,6.54618578 Z" id="Shape"></path>
                            </g>
                        </g>
                    </g>
                </g>
            </g>
        </g>
    </g>
</svg>