<?xml version="1.0" encoding="UTF-8"?>
<svg width="44px" height="44px" viewBox="0 0 44 44" version="1.1" xmlns="http://www.w3.org/2000/svg" xmlns:xlink="http://www.w3.org/1999/xlink">
    <!-- Generator: Sketch 52.6 (67491) - http://www.bohemiancoding.com/sketch -->
    <title>朋友圈 copy 2@2x</title>
    <desc>Created with Sketch.</desc>
    <g id="Page-1" stroke="none" stroke-width="1" fill="none" fill-rule="evenodd">
        <g id="分享" transform="translate(-229.000000, -650.000000)">
            <g id="Group-9" transform="translate(0.000000, 621.000000)">
                <g id="Group-8" transform="translate(25.000000, 29.000000)">
                    <g id="Group-6" transform="translate(204.000000, 0.000000)">
                        <g id="朋友圈-copy-2">
                            <circle id="Oval-2-Copy" fill="#9A8DC5" cx="22" cy="22" r="22"></circle>
                            <path d="M15.7974569,9.56567246 C13.1129161,10.9080752 10.9228205,13.097565 9.57444199,15.785323 L21.9791487,15.785323 L15.7974569,9.56567246 L15.7974569,9.56567246 Z M26.6058118,8.90394687 C25.1587149,8.3906409 23.6014682,8.11124263 21.9791828,8.11124263 C20.3538263,8.11124263 18.7937474,8.39173958 17.344296,8.90689949 L26.6058118,18.4037293 L26.6058118,8.90394687 L26.6058118,8.90394687 Z M8.9456878,17.2399932 C8.39821507,18.7365147 8.09929579,20.3534749 8.09929579,22.0404734 C8.09929579,23.4075956 8.2957431,24.7286778 8.66154385,25.9770094 L19.0875823,17.2399932 L8.9456878,17.2399932 L8.9456878,17.2399932 L8.9456878,17.2399932 Z M28.0516462,9.51183902 L28.0516462,22.1859405 L34.9019821,16.9477202 C33.6269344,13.6918614 31.1653887,11.034625 28.0516462,9.51183902 L28.0516462,9.51183902 Z M27.4228579,34.857364 C30.4126649,33.5767942 32.8634618,31.2736293 34.3386421,28.3855752 L21.1117027,27.7137558 L27.4228579,34.857364 L27.4228579,34.857364 Z M35.3820274,18.4070253 L25.1599774,26.5500197 L35.0183081,26.8255384 C35.5621979,25.3333427 35.8590698,23.7217041 35.8590698,22.0404734 C35.8590698,20.7834901 35.6930945,19.5653712 35.3820274,18.4070253 L35.3820274,18.4070253 Z M17.0633938,35.0707408 C18.591465,35.6516475 20.2482832,35.9697043 21.9791828,35.9697043 C23.3755726,35.9697043 24.7237464,35.7625416 25.9950406,35.3775708 L17.0633938,25.0953495 L17.0633938,35.0707408 L17.0633938,35.0707408 Z M15.6175935,34.4235378 L15.6175935,22.1859061 L9.23911324,27.5767346 C10.515287,30.5303639 12.7814433,32.9531434 15.6175935,34.4235378 L15.6175935,34.4235378 Z" id="Shape" fill="#FFFFFF"></path>
                        </g>
                    </g>
                </g>
            </g>
        </g>
    </g>
</svg>