<?xml version="1.0" encoding="UTF-8"?>
<svg width="33px" height="33px" viewBox="0 0 33 33" version="1.1" xmlns="http://www.w3.org/2000/svg" xmlns:xlink="http://www.w3.org/1999/xlink">
    <!-- Generator: Sketch 52.6 (67491) - http://www.bohemiancoding.com/sketch -->
    <title>详情页更多@3x</title>
    <desc>Created with Sketch.</desc>
    <g id="Page-1" stroke="none" stroke-width="1" fill="none" fill-rule="evenodd">
        <g id="商品详情页A-选择尺码弹出层" transform="translate(-370.000000, -25.000000)">
            <g id="Group-66" transform="translate(11.000000, 24.000000)">
                <g id="详情页更多" transform="translate(359.000000, 1.000000)">
                    <circle id="Oval-15" fill-opacity="0.9" fill="#FFFFFF" opacity="0.7" cx="16.5" cy="16.5" r="16.5"></circle>
                    <g id="分享" transform="translate(8.000000, 8.000000)" fill="#323A45" fill-rule="nonzero" stroke="#323A45" stroke-width="0.4">
                        <path d="M3.9533227,12.9886634 C4.12302707,11.7294274 5.59277793,3.58885652 14.8731536,2.70215329 L11.8875631,0.893154257 C11.662438,0.75067364 11.5949054,0.449958173 11.7373961,0.224853057 C11.8798767,-0.000181826532 12.1806022,-0.0678247432 12.405617,0.0746659068 L16.7565187,2.71085326 C16.904418,2.80449571 16.984283,2.96652362 16.9812525,3.13044807 C16.9812526,3.25654226 16.932876,3.38250599 16.8361931,3.47700137 L13.2689899,6.80591402 C13.0784939,6.99214527 12.7702827,6.98861312 12.5840514,6.79814727 C12.3978402,6.60774164 12.4013423,6.29951029 12.5917379,6.11329909 L15.2695184,3.61446471 C12.6186204,3.82134709 6.80089793,5.17605182 4.93946837,12.9285264 L4.9016983,13.1478717 C4.86366735,13.3963974 4.67391395,13.5807221 4.4248965,13.5807221 C4.17596935,13.5807221 3.97133472,13.3908282 3.9480947,13.1478717 L3.9480947,13.1447208 C3.94002692,13.0884571 3.9533227,12.9886634 3.9533227,12.9886634 Z M16.9813529,9.45114249 C16.9813529,9.45354074 16.9811622,9.45578849 16.9811522,9.45816667 L16.9813529,9.45816667 L16.9813529,14.439449 C16.9813529,15.8350044 15.8394509,16.9769164 14.4439056,16.9769164 L2.53744733,16.9769164 C1.14190198,16.9769164 0,15.8350044 0,14.439449 L0,3.85722061 C-1.66666666e-08,2.46156486 1.14190197,1.31978329 2.53744733,1.31978329 L5.64390398,1.31978329 C5.91134488,1.31978331 6.1282016,1.53662997 6.1282016,1.80405081 C6.1282016,2.07158201 5.91133485,2.28843872 5.64390398,2.28843872 L2.53744733,2.28843872 C2.12120407,2.28843872 1.72797002,2.45236317 1.43029502,2.75005824 C1.13260998,3.04774329 0.968685533,3.44094722 0.968685533,3.85722061 L0.968685533,14.4393386 C0.968685533,14.855602 1.13260998,15.248816 1.43029502,15.546511 C1.72806032,15.8441961 2.12120405,16.0082409 2.53744733,16.0082409 L14.4439056,16.0082409 C14.8601488,16.0082409 15.2532725,15.8441961 15.5510579,15.546511 C15.848763,15.248816 16.0126774,14.855602 16.0126774,14.4393386 L16.0126774,9.45816667 L16.0128781,9.45816667 C16.0128781,9.45578849 16.0126774,9.45354074 16.0126774,9.45114249 C16.0126774,9.18362131 16.2295642,8.96685491 16.496975,8.96685491 C16.7644962,8.96685491 16.9813529,9.18362132 16.9813529,9.45114249 Z M5.64390398,1.31978329 L5.64390398,2.28843872 L5.64390398,1.31978329 Z" id="Combined-Shape"></path>
                    </g>
                </g>
            </g>
        </g>
    </g>
</svg>