<?xml version="1.0" encoding="UTF-8"?>
<svg width="39px" height="14px" viewBox="0 0 39 14" version="1.1" xmlns="http://www.w3.org/2000/svg" xmlns:xlink="http://www.w3.org/1999/xlink">
    <!-- Generator: Sketch 52.6 (67491) - http://www.bohemiancoding.com/sketch -->
    <title>Group 2@2x</title>
    <desc>Created with Sketch.</desc>
    <g id="Page-1" stroke="none" stroke-width="1" fill="none" fill-rule="evenodd">
        <g id="小C首页-" transform="translate(-353.000000, -778.000000)" fill="#FC5D7B">
            <g id="分组-3" transform="translate(0.000000, 770.000000)">
                <g id="Group-42" transform="translate(15.000000, 0.000000)">
                    <g id="Group-2" transform="translate(338.000000, 5.000000)">
                        <text id="更多" font-family="PingFangSC-Regular, PingFang SC" font-size="14" font-weight="normal">
                            <tspan x="0" y="15">更多</tspan>
                        </text>
                        <g id="下一步箭头" transform="translate(34.000000, 5.000000)" fill-rule="nonzero">
                            <g id="箭头">
                                <path d="M0.62510535,9 C0.481061878,9 0.336401072,8.95549943 0.218605522,8.8645845 C-0.0438508348,8.66242329 -0.0743628979,8.307283 0.150859356,8.07134251 L3.55177149,4.49981402 L0.150859367,0.928275246 C-0.0743628868,0.692334758 -0.0438393951,0.337184179 0.218605533,0.135033254 C0.480444555,-0.0663048299 0.875352308,-0.0396559328 1.09935134,0.19600676 L4.84939741,4.13367463 C5.05020086,4.34434496 5.05020086,4.65527278 4.84939741,4.86594312 L1.09935134,8.80361099 C0.976056984,8.93326458 0.800884114,9 0.62510535,9 Z" id="Shape"></path>
                            </g>
                        </g>
                    </g>
                </g>
            </g>
        </g>
    </g>
</svg>