<?xml version="1.0" encoding="UTF-8"?>
<svg width="37px" height="35px" viewBox="0 0 37 35" version="1.1" xmlns="http://www.w3.org/2000/svg" xmlns:xlink="http://www.w3.org/1999/xlink">
    <!-- Generator: Sketch 52.6 (67491) - http://www.bohemiancoding.com/sketch -->
    <title>Group 4@2x</title>
    <desc>Created with Sketch.</desc>
    <defs>
        <filter x="-4.5%" y="-14.1%" width="109.1%" height="123.4%" filterUnits="objectBoundingBox" id="filter-1">
            <feOffset dx="0" dy="0" in="SourceAlpha" result="shadowOffsetOuter1"></feOffset>
            <feGaussianBlur stdDeviation="3" in="shadowOffsetOuter1" result="shadowBlurOuter1"></feGaussianBlur>
            <feColorMatrix values="0 0 0 0 0.760784314   0 0 0 0 0.768627451   0 0 0 0 0.780392157  0 0 0 0.314141757 0" type="matrix" in="shadowBlurOuter1" result="shadowMatrixOuter1"></feColorMatrix>
            <feMerge>
                <feMergeNode in="shadowMatrixOuter1"></feMergeNode>
                <feMergeNode in="SourceGraphic"></feMergeNode>
            </feMerge>
        </filter>
        <linearGradient x1="98.0178421%" y1="3.10211182%" x2="0%" y2="100%" id="linearGradient-2">
            <stop stop-color="#31D3F3" offset="0%"></stop>
            <stop stop-color="#52E2BF" offset="100%"></stop>
        </linearGradient>
        <path d="M23.7713498,19.2644872 C23.6379522,19.6025661 23.4482139,19.899602 23.2021348,20.1557872 C22.9558889,20.4119084 22.6685828,20.6116627 22.3402999,20.7549605 C22.0121518,20.898425 21.6531218,20.9700708 21.2631972,20.9700708 L2.92142377,20.9700708 C2.53168525,20.9700708 2.16231002,20.8984186 1.81354189,20.7549605 C1.46483795,20.6116627 1.1571429,20.4119019 0.890386128,20.1557808 C0.623565202,19.8996276 0.413277495,19.6025661 0.259555119,19.2644872 C0.105608133,18.9263763 0.0286859679,18.5628603 0.0286859679,18.1734649 L0.0286859679,2.83806283 C0.0286859679,2.0596502 0.300429243,1.398874 0.844146858,0.855932833 C1.38785805,0.313055761 2.04950027,0.0414570214 2.82909922,0.0414570214 L21.1709689,0.0414570214 C21.9505999,0.0414570214 22.6122422,0.313055761 23.1558956,0.855932833 C23.6996389,1.39890604 23.9713501,2.0596502 23.9713501,2.83806283 L23.9713501,7.01772141 L16.9857578,7.01772141 C16.2060946,7.01772141 15.5444204,7.28398791 15.0007733,7.81668755 C14.4570943,8.34935516 14.1853189,9.00499138 14.1853189,9.78359628 C14.2058682,10.3162639 14.3187165,10.7875272 14.5238893,11.1972839 C14.6879313,11.5456363 14.959835,11.8631616 15.3393438,12.149956 C15.7189167,12.436712 16.2677749,12.5802085 16.9857899,12.5802085 L23.9713821,12.5802085 L23.9713821,18.1734586 C23.97135,18.5628283 23.9047474,18.9263827 23.7713498,19.2644872 Z M18.0342611,8.82924618 C18.3232402,8.54358066 18.6787935,8.40071009 19.1009488,8.40071009 C19.5230345,8.40071009 19.8786851,8.54358066 20.1675947,8.82924618 C20.4564418,9.11504919 20.6009279,9.46669462 20.6009279,9.88420998 C20.6009279,10.3016909 20.4564348,10.6588777 20.1675947,10.9556739 C19.8786781,11.2523326 19.5230623,11.4007101 19.1009488,11.4007101 C18.6787935,11.4007101 18.3232124,11.2523257 18.0342611,10.9556739 C17.745414,10.6588777 17.6009279,10.3016909 17.6009279,9.88420998 C17.6009279,9.46669462 17.7454209,9.11502171 18.0342611,8.82924618 Z" id="path-3"></path>
        <filter x="-8.4%" y="-4.8%" width="116.7%" height="119.1%" filterUnits="objectBoundingBox" id="filter-4">
            <feOffset dx="0" dy="1" in="SourceAlpha" result="shadowOffsetOuter1"></feOffset>
            <feGaussianBlur stdDeviation="0.5" in="shadowOffsetOuter1" result="shadowBlurOuter1"></feGaussianBlur>
            <feColorMatrix values="0 0 0 0 0.793304135   0 0 0 0 1   0 0 0 0 1  0 0 0 1 0" type="matrix" in="shadowBlurOuter1"></feColorMatrix>
        </filter>
    </defs>
    <g id="Page-1" stroke="none" stroke-width="1" fill="none" fill-rule="evenodd">
        <g id="小c我的-会员页面" transform="translate(-41.000000, -206.000000)">
            <g id="Group-14-Copy-2" filter="url(#filter-1)" transform="translate(10.000000, 150.500000)">
                <g id="待付款" transform="translate(31.000000, 57.000000)">
                    <g id="Group-4" transform="translate(3.000000, 0.000000)">
                        <rect id="Rectangle" x="0" y="0" width="31" height="31"></rect>
                        <g id="卡包" transform="translate(3.000000, 5.000000)" fill-rule="nonzero">
                            <g id="Shape">
                                <use fill="black" fill-opacity="1" filter="url(#filter-4)" xlink:href="#path-3"></use>
                                <use fill="url(#linearGradient-2)" xlink:href="#path-3"></use>
                            </g>
                        </g>
                    </g>
                </g>
            </g>
        </g>
    </g>
</svg>